<?xml version="1.0" encoding="UTF-8"?>
<svg id="Layer_2" data-name="Layer 2" xmlns="http://www.w3.org/2000/svg" xmlns:xlink="http://www.w3.org/1999/xlink" viewBox="0 0 156.76 156.76">
  <defs>
    <style>
      .cls-1 {
        letter-spacing: -.09em;
      }

      .cls-2 {
        clip-path: url(#clippath);
      }

      .cls-3 {
        fill: none;
      }

      .cls-3, .cls-4, .cls-5, .cls-6, .cls-7, .cls-8, .cls-9, .cls-10, .cls-11, .cls-12, .cls-13, .cls-14, .cls-15, .cls-16, .cls-17, .cls-18 {
        stroke-width: 0px;
      }

      .cls-19 {
        font-family: Helvetica, Helvetica;
        font-size: 19px;
      }

      .cls-19, .cls-18 {
        fill: #f5f5f7;
      }

      .cls-20 {
        letter-spacing: -.11em;
      }

      .cls-21 {
        opacity: .47;
      }

      .cls-4 {
        fill: #f4ac56;
      }

      .cls-5 {
        fill: #fabe70;
      }

      .cls-6 {
        fill: #4d8182;
      }

      .cls-7 {
        fill: #86a54a;
      }

      .cls-8 {
        fill: #34312f;
      }

      .cls-9 {
        fill: #598a90;
      }

      .cls-10 {
        fill: #443f3d;
      }

      .cls-11 {
        fill: #d35451;
      }

      .cls-12 {
        fill: #b38c69;
      }

      .cls-13 {
        fill: #bcd88b;
      }

      .cls-14 {
        fill: #cdcdd2;
      }

      .cls-15 {
        fill: #ee6762;
      }

      .cls-16 {
        fill: #e2f9af;
      }

      .cls-17 {
        fill: #fd987a;
      }
    </style>
    <clipPath id="clippath">
      <rect class="cls-3" x="0" width="156.76" height="156.76" rx="21.29" ry="21.29"/>
    </clipPath>
  </defs>
  <g id="TEXTS">
    <g>
      <g>
        <rect class="cls-9" x="0" width="156.76" height="156.76" rx="21.29" ry="21.29"/>
        <g class="cls-2">
          <g>
            <path class="cls-6" d="m158.82,8.53c-10.95-10.69-23.45-21.09-38.56-23.52l-3.72,5.02c-4.5,6.86-9.18,14.83-7.09,22.76,3.25,12.33,20.75,16.68,23.71,29.08,2.06,8.65-3.98,17.05-5.18,25.86-1.47,10.81,4.79,21.62,13.6,28.05,8.81,6.44,19.79,9.15,30.61,10.57,5.53.73,11.2,1.15,16.64-.07,5.44-1.22,10.69-4.27,13.44-9.12,3.3-5.79,2.55-13,1.01-19.49-6.42-27.02-24.57-49.75-44.46-69.15Z"/>
            <path class="cls-6" d="m11.2,102.7c-3.65-7.65-1.89-16.97,2.28-24.35,4.16-7.38,10.44-13.3,16.34-19.38,3.24-3.34,6.59-7.23,6.63-11.88.03-3.88-2.4-7.5-5.66-9.59s-7.24-2.82-11.12-2.8c-7.46.02-14.88,2.69-20.65,7.42l-6.63,14.41c-11.02,18.15-13.65,40.11-14.4,61.33-.56,15.88,0,32.61,8.03,46.32,3.75,6.42,9.79,12.28,17.21,12.72,4.94.3,9.72-1.87,13.8-4.66,8.06-5.53,14.28-13.9,16.52-23.42,2.25-9.51.3-20.08-5.77-27.74-5.15-6.5-13.01-10.89-16.58-18.38Z"/>
            <path class="cls-6" d="m140.45,137.78c-2.47,2.64-3.82,6.13-6.06,8.96-3.55,4.47-9.39,7-15.08,6.54-3.95-.32-7.74-1.98-11.71-2.01-6.36-.04-12.3,4.44-14.76,10.3-2.46,5.87-1.7,12.8,1.22,18.45l7.75-2.61c19.42,4.28,40.82-1.87,55.01-15.8,3.53-3.47,6.75-7.64,7.41-12.54.77-5.76-2.52-11.83-7.77-14.32-5.25-2.49-12.04-1.2-16.01,3.04Z"/>
          </g>
          <g>
            <g>
              <path class="cls-8" d="m27.32,60.52l-16.34,11.97c-1.69,1.24-2.06,3.61-.82,5.3l10.53,14.37c1.24,1.69,3.61,2.06,5.3.82l16.34-11.97c1.69-1.24,2.06-3.61.82-5.3l-10.53-14.37c-1.24-1.69-3.61-2.06-5.3-.82Zm-1.58,27.43c.46.63.33,1.52-.31,1.98h0c-.63.46-1.52.33-1.98-.31l-9.87-13.48c-.46-.63-.33-1.52.31-1.98h0c.63-.46,1.52-.33,1.98.31l9.87,13.48Zm4.72-3.45c.46.63.33,1.52-.31,1.98h0c-.63.46-1.52.33-1.98-.31l-9.87-13.48c-.46-.63-.33-1.52.31-1.98h0c.63-.46,1.52-.33,1.98.31l9.87,13.48Zm4.72-3.45c.46.63.33,1.52-.31,1.98h0c-.63.46-1.52.33-1.98-.31l-9.87-13.48c-.46-.63-.33-1.52.31-1.98h0c.63-.46,1.52-.33,1.98.31l9.87,13.48Zm4.72-3.45c.46.63.33,1.52-.31,1.98h0c-.63.46-1.52.33-1.98-.31l-9.87-13.48c-.46-.63-.33-1.52.31-1.98h0c.63-.46,1.52-.33,1.98.31l9.87,13.48Z"/>
              <rect class="cls-10" x="4.53" y="29.21" width="4.84" height="41.28" transform="translate(-28.11 13.74) rotate(-36.22)"/>
            </g>
            <g>
              <path class="cls-5" d="m117.34,89.81l52.88-62.56c.81-.96.67-2.41-.31-3.24h0c-.98-.83-2.43-.73-3.24.23l-52.88,62.56c-.81.96-.67,2.41.31,3.24h0c.98.83,2.43.73,3.24-.23Z"/>
              <rect class="cls-12" x="109.59" y="49.51" width="64.8" height="15.03" rx="3.42" ry="3.42" transform="translate(6.78 128.66) rotate(-49.79)"/>
            </g>
            <g>
              <path class="cls-10" d="m152.51-6.71l-7.19,4.29-5.61,3.35-3.84,2.29,3.38,5.66,3.84-2.29,5.61-3.35,7.19-4.29c.85-.5,1.12-1.6.62-2.45l-1.55-2.6c-.5-.85-1.6-1.12-2.44-.62Z"/>
              <g>
                <polygon class="cls-14" points="139.24 8.88 139.23 16.57 137.08 17.85 130.32 6.53 135.86 3.22 139.24 8.88"/>
                <path class="cls-18" d="m100.14,24.54s8.73,10.15,25.43.18c5.32-3.18,8.99-5.36,11.5-6.87l-6.76-11.33-30.18,18.01Z"/>
              </g>
            </g>
            <g>
              <path class="cls-18" d="m35.34,33.78c1.7.39,3.57.41,5.26-.12.37-.1.72-.25,1.06-.42.08-.04.15-.07.23-.11.03-.02.07-.04.1-.06,0,0,0,0,.01,0,.02-.01.05-.03.07-.04.96-.54,1.82-1.28,2.52-2.13,1-1.21,1.76-2.66,2.13-4.19.18-.74.27-1.5.25-2.26,0-.27-.02-.54-.05-.8-.01-.09-.02-.18-.03-.27-.05-.34-.12-.67-.22-1-.05-.16-.1-.35-.18-.5,0,0,0-.01,0-.02,0,0,0,0,0,0-.39-1.06-.98-2.05-1.67-2.92-1.59-1.98-3.88-3.34-6.27-4.12-1.2-.39-2.46-.64-3.72-.72-1.24-.08-2.48.02-3.71.13-1.23.11-2.46.23-3.69.2-1.24-.03-2.46-.25-3.65-.61-2.53-.77-4.88-2.04-7.18-3.32-.29-.16-.57-.32-.86-.48-.21-.12-.39.2-.18.32,2.28,1.28,4.58,2.58,7.05,3.48,1.15.42,2.33.75,3.55.89,1.22.15,2.45.1,3.67,0,1.21-.1,2.41-.24,3.63-.27,1.24-.03,2.48.09,3.69.37,2.46.57,4.9,1.75,6.68,3.57,1.01,1.02,1.86,2.3,2.35,3.68,0,0,0,0,0,0,.25.7.4,1.42.43,2.16,0,.03,0,.05,0,.08,0,.23,0,.45-.01.68,0,.03,0,.05,0,.07-.02.37-.06.73-.13,1.09-.02.13-.05.25-.08.37-.17-.64-.45-1.25-.77-1.83-.55-1-1.25-1.92-2.05-2.73-.89-.91-1.93-1.65-3.02-2.31-1.1-.67-2.26-1.24-3.45-1.72-1.13-.46-2.29-.84-3.47-1.1-1.17-.26-2.36-.4-3.55-.53-1.2-.13-2.39-.27-3.57-.53-1.18-.26-2.32-.66-3.44-1.12-2.38-.99-4.64-2.24-6.88-3.5-.28-.16-.56-.32-.84-.47-.21-.12-.39.2-.18.32,2.23,1.27,4.48,2.54,6.82,3.59,1.06.47,2.14.91,3.25,1.24,1.17.35,2.37.56,3.58.7,1.15.14,2.31.24,3.46.43,1.18.19,2.34.48,3.47.87,1.2.41,2.37.92,3.49,1.52,1.11.59,2.22,1.26,3.18,2.07.91.76,1.71,1.65,2.37,2.64.53.8,1,1.67,1.25,2.6.05.18.09.37.12.55,0,.03.01.05.02.07-.1.3-.21.6-.34.9-.33-.6-.83-1.12-1.31-1.6-.84-.82-1.77-1.56-2.72-2.25-1.05-.76-2.13-1.47-3.28-2.08-1.13-.61-2.3-1.14-3.48-1.63-2.08-.86-4.22-1.59-6.3-2.45-2.1-.87-4.18-1.82-6.22-2.82-2.28-1.11-4.52-2.28-6.73-3.51-.28-.16-.56-.31-.83-.47-.21-.12-.39.2-.18.32,2.2,1.25,4.43,2.43,6.7,3.56,2.07,1.03,4.16,2,6.28,2.91,1.99.85,4.02,1.57,6.03,2.36,2.36.93,4.68,1.98,6.79,3.41,1.02.69,2.01,1.43,2.94,2.24.7.61,1.42,1.27,1.91,2.06.08.12.15.26.21.39-.21.44-.46.86-.73,1.26-.79.1-1.64-.14-2.39-.35-1.15-.33-2.26-.77-3.35-1.25-1.17-.52-2.31-1.11-3.41-1.8-1.07-.67-2.11-1.41-3.11-2.18-1.76-1.34-3.43-2.79-5.2-4.12-1.81-1.36-3.67-2.66-5.55-3.91-2.08-1.38-4.2-2.71-6.36-3.98-.28-.16-.55-.32-.83-.48-.21-.12-.39.2-.18.32,2.21,1.27,4.37,2.62,6.51,4.01,1.94,1.27,3.86,2.59,5.72,3.98,1.77,1.32,3.45,2.74,5.19,4.1,2.02,1.58,4.13,3.02,6.45,4.11,1.12.52,2.26,1,3.43,1.38.87.28,1.8.55,2.72.56.03,0,.06,0,.09,0,0,0,0,0,0,0-.19.26-.39.51-.61.74-.02,0-.03,0-.05.01-.82.34-1.75.43-2.63.44-1.15.01-2.3-.15-3.41-.46-1.21-.34-2.35-.88-3.44-1.49-1.12-.63-2.19-1.34-3.19-2.14-.93-.74-1.81-1.55-2.6-2.43-.8-.89-1.5-1.85-2.22-2.8-.72-.96-1.45-1.9-2.28-2.77-.81-.84-1.71-1.59-2.64-2.29-2.03-1.53-4.23-2.83-6.43-4.11-.28-.16-.56-.32-.83-.48-.21-.12-.39.2-.18.32,2.24,1.3,4.49,2.6,6.6,4.11.97.69,1.91,1.43,2.77,2.26.89.86,1.67,1.81,2.41,2.79.71.94,1.4,1.91,2.17,2.81.78.92,1.65,1.76,2.58,2.54.98.82,2.03,1.56,3.12,2.21,1.1.66,2.26,1.26,3.48,1.66,1.12.37,2.29.58,3.47.63.91.04,1.84-.01,2.72-.25-.34.31-.7.59-1.08.85-.02,0-.04.01-.06.03-.15.11-.31.2-.47.3-.18.1-.36.19-.55.28-.03.01-.05.02-.08.04-.06.03-.12.05-.19.08-.05.02-.11.04-.16.06-.17.06-.35.11-.52.16,0,0-.02,0-.02,0-.03,0-.05.02-.07.03-1.36.38-2.84.4-4.21.17-2.49-.42-4.79-1.76-6.62-3.47-.91-.85-1.72-1.82-2.39-2.87-.65-1.03-1.17-2.14-1.68-3.24-.52-1.11-1.05-2.22-1.72-3.25-.67-1.03-1.49-1.94-2.4-2.76-1.93-1.74-4.17-3.1-6.4-4.42-.28-.17-.56-.33-.85-.5-.21-.12-.39.2-.18.32,2.29,1.34,4.61,2.68,6.64,4.39.95.8,1.83,1.68,2.56,2.68.72,1.01,1.29,2.12,1.82,3.24.53,1.11,1.03,2.24,1.66,3.31.64,1.08,1.41,2.08,2.3,2.97,1.79,1.79,4.07,3.24,6.56,3.81Z"/>
              <path class="cls-4" d="m17.94,9.85l-2.08-1.19-2.8-1.61L1.5.44C.52-.13-.74.21-1.31,1.2l-1.09,1.91c-.57.99-.22,2.25.76,2.81l11.55,6.62,2.8,1.61,2.08,1.19,3.14-5.49ZM-.18,3.12c.32-.56,1.04-.75,1.6-.43.56.32.75,1.04.43,1.6s-1.04.75-1.6.43c-.56-.32-.75-1.04-.43-1.6Z"/>
            </g>
            <g>
              <g>
                <path class="cls-15" d="m82.38,18.11l-13.79-8.56,11.83-19.07c.88-1.43,2.73-1.88,4.13-1.01l8.88,5.51c1.31.82,1.71,2.56.87,3.9l-11.93,19.22Z"/>
                <rect class="cls-17" x="74.01" y="-1.05" width="16.23" height="8.38" transform="translate(150.25 49.09) rotate(-148.19)"/>
              </g>
              <g>
                <path class="cls-11" d="m81.92,17.23l-12.33-7.65c-1.83-1.14-4.26-.54-5.42,1.33h0c-1.16,1.87-.61,4.31,1.22,5.45l12.33,7.65c1.83,1.14,4.26.54,5.42-1.33h0c1.16-1.87.61-4.31-1.22-5.45Z"/>
                <g>
                  <path class="cls-17" d="m69.59,18.65c.4-.64.21-1.47-.42-1.86-.63-.39-1.45-.19-1.85.45-.05.08-.09.15-.12.23l2.22,1.38c.06-.06.11-.13.16-.21Z"/>
                  <path class="cls-17" d="m72.82,20.66c.4-.64.21-1.47-.42-1.86-.63-.39-1.45-.19-1.85.45-.05.08-.09.15-.12.23l2.22,1.38c.06-.06.11-.13.16-.21Z"/>
                  <path class="cls-17" d="m75.64,20.81c-.63-.39-1.45-.19-1.85.45-.05.08-.09.15-.12.23l2.22,1.38c.06-.06.11-.13.16-.21.4-.64.21-1.47-.42-1.86Z"/>
                </g>
              </g>
            </g>
          </g>
          <g>
            <g>
              <g>
                <path class="cls-16" d="m19.87,148.98c.3-4.15,3.31-7.77,7.01-9.68,3.54-1.82,7.75-2.3,11.6-1.3,0,0-6.14,8.78-17.21,10.8l-1.4.17Z"/>
                <path class="cls-7" d="m16.7,157.3c.13-.64.29-1.27.47-1.89.05-.15.09-.31.14-.46.02-.07.05-.15.07-.22.02-.06,0,0,0,0,0-.02.01-.03.02-.05.01-.04.03-.09.04-.13.11-.31.22-.61.34-.91.48-1.2,1.06-2.36,1.73-3.47.17-.27.34-.54.52-.81.04-.05,0,0,0,0,.01-.02.02-.03.03-.05.02-.03.05-.07.07-.1.05-.07.1-.14.15-.21.09-.13.19-.26.28-.39.38-.52.78-1.02,1.21-1.51.42-.49.87-.96,1.33-1.41.23-.23.47-.45.71-.66.03-.02.05-.05.08-.07l.04-.04c-.05.05,0,0,0,0,.06-.05.12-.11.19-.16.12-.1.24-.21.37-.31,1-.82,2.07-1.55,3.2-2.18.14-.08.28-.15.42-.23.16-.08.19-.33.09-.47-.12-.16-.3-.18-.47-.09-1.15.61-2.25,1.33-3.28,2.14-1.03.81-2,1.72-2.89,2.69-.89.98-1.69,2.04-2.4,3.16-.7,1.1-1.31,2.25-1.82,3.45-.51,1.22-.92,2.48-1.21,3.77-.04.16-.07.31-.1.47-.04.17.09.37.27.4.18.03.36-.08.4-.27h0Z"/>
              </g>
              <g>
                <path class="cls-13" d="m16.84,142.91c.73-4.1-1.3-8.34-4.42-11.1-2.98-2.64-6.95-4.13-10.93-4.11,0,0,3.8,10.02,14.03,14.7l1.31.51Z"/>
                <path class="cls-7" d="m17.87,151.76c.03-.65.03-1.3,0-1.95,0-.16-.02-.32-.03-.48,0-.08-.01-.15-.02-.23,0-.06,0,0,0,0,0-.02,0-.04,0-.05,0-.05,0-.09-.01-.14-.03-.32-.06-.65-.11-.97-.17-1.28-.45-2.55-.83-3.79-.09-.31-.2-.61-.3-.91-.02-.06,0,0,0,0,0-.02-.01-.03-.02-.05-.01-.04-.03-.08-.04-.12-.03-.08-.06-.16-.09-.24-.06-.15-.12-.3-.18-.45-.24-.6-.51-1.19-.8-1.76-.29-.58-.6-1.14-.94-1.69-.17-.28-.35-.55-.53-.82-.02-.03-.04-.06-.06-.09l-.03-.05c.04.06,0,0,0,0-.05-.07-.09-.14-.14-.2-.09-.13-.19-.26-.28-.39-.77-1.04-1.63-2.01-2.56-2.9-.12-.11-.23-.22-.35-.33-.13-.12-.1-.37.03-.48.15-.13.34-.1.48.03.97.88,1.86,1.84,2.65,2.88.8,1.04,1.52,2.16,2.14,3.32.62,1.17,1.14,2.39,1.55,3.65.41,1.24.72,2.51.91,3.79.2,1.31.28,2.63.25,3.96,0,.16-.01.32-.02.48,0,.18-.18.34-.36.32-.18-.02-.33-.17-.32-.36h0Z"/>
              </g>
            </g>
            <g>
              <path class="cls-16" d="m153.55,119.41c-5.37,1.53-11.31-.61-15.41-4.4-3.92-3.62-6.45-8.72-6.96-14.03,0,0,13.89,3.72,21.52,16.74l.86,1.69Z"/>
              <path class="cls-7" d="m165.51,119.58c-.86.13-1.73.22-2.6.27-.21.01-.43.02-.64.03-.1,0-.21,0-.31,0-.09,0,0,0,.01,0-.02,0-.05,0-.07,0-.06,0-.12,0-.18,0-.44,0-.87,0-1.31-.01-1.73-.05-3.46-.25-5.17-.59-.42-.08-.84-.18-1.26-.28-.08-.02,0,0,0,0-.02,0-.05-.01-.07-.02-.05-.01-.11-.03-.16-.04-.11-.03-.23-.06-.34-.09-.21-.06-.41-.11-.62-.17-.83-.24-1.65-.52-2.46-.83-.81-.31-1.6-.65-2.38-1.03-.39-.19-.78-.39-1.16-.59-.04-.02-.09-.05-.13-.07-.02-.01-.04-.02-.06-.04.08.05,0,0-.01,0-.1-.05-.19-.11-.29-.16-.19-.11-.37-.21-.56-.32-1.49-.89-2.91-1.9-4.22-3.03-.16-.14-.32-.28-.48-.43-.18-.16-.51-.09-.63.1-.15.22-.09.46.1.63,1.3,1.17,2.71,2.23,4.2,3.15,1.5.93,3.08,1.74,4.72,2.4,1.65.67,3.35,1.19,5.08,1.58,1.71.38,3.44.62,5.19.7,1.77.09,3.56.02,5.32-.2.21-.03.43-.06.64-.09.23-.03.42-.28.38-.52-.05-.24-.27-.41-.52-.38h0Z"/>
            </g>
            <g>
              <path class="cls-13" d="m126.58,155.05c2.89-1.81,4.34-5.38,4.3-8.78-.04-3.26-1.32-6.48-3.52-8.88,0,0-3.98,7.81-1.19,16.59l.41,1.08Z"/>
              <path class="cls-7" d="m121.78,160.54c.41-.34.8-.69,1.18-1.07.09-.09.19-.18.28-.28.04-.05.09-.09.13-.14.04-.04,0,0,0,0,.01-.01.02-.02.03-.03.03-.03.05-.05.08-.08.18-.19.36-.39.53-.6.68-.81,1.3-1.67,1.84-2.58.13-.23.26-.45.39-.68.02-.05,0,0,0,0l.02-.04s.03-.06.05-.09c.03-.06.07-.13.1-.19.06-.12.12-.23.17-.35.23-.48.44-.96.63-1.45.19-.49.36-.99.51-1.5.07-.26.14-.51.21-.77,0-.03.01-.06.02-.09,0-.01,0-.03.01-.04-.01.06,0,0,0,0,.02-.07.03-.13.04-.2.03-.13.06-.26.08-.38.21-1.04.33-2.09.35-3.15,0-.13,0-.26,0-.39,0-.15.17-.27.3-.25.16.02.25.15.25.3,0,1.07-.1,2.14-.29,3.19-.19,1.06-.47,2.11-.84,3.12-.37,1.02-.83,2-1.36,2.95-.52.93-1.13,1.81-1.8,2.64-.68.84-1.44,1.62-2.26,2.33-.1.09-.2.17-.3.25-.11.09-.3.08-.39-.04-.09-.12-.08-.29.04-.39h0Z"/>
            </g>
          </g>
        </g>
        <g>
          <g>
            <rect class="cls-18" x="54.21" y="51.92" width="48.33" height="42.98" rx="7.6" ry="7.6"/>
            <path class="cls-14" d="m54.21,87.42c.06,4.15,3.43,7.49,7.59,7.49h33.14c4.16,0,7.54-3.34,7.59-7.49h-48.33Z"/>
          </g>
          <path class="cls-18" d="m100.05,35.07c-3.51,0-6.74,1.17-9.33,3.14-2.43-4.3-7.05-7.21-12.34-7.21s-9.91,2.9-12.34,7.21c-2.59-1.97-5.82-3.14-9.33-3.14-8.52,0-15.42,6.9-15.42,15.42s6.9,15.42,15.42,15.42c6.17,0,11.49-3.62,13.95-8.85,2.22,1.45,4.87,2.29,7.72,2.29s5.5-.84,7.72-2.29c2.47,5.23,7.79,8.85,13.95,8.85,8.52,0,15.42-6.9,15.42-15.42s-6.9-15.42-15.42-15.42Z"/>
        </g>
        <g class="cls-21">
          <circle class="cls-18" cx="12.05" cy="25.05" r="1.24"/>
          <path class="cls-18" d="m55.77,10.23c0,2.02-1.63,3.65-3.65,3.65s-3.65-1.63-3.65-3.65,1.63-3.65,3.65-3.65,3.65,1.63,3.65,3.65Z"/>
          <path class="cls-18" d="m97.67,14.98c0,.6-.49,1.09-1.09,1.09s-1.09-.49-1.09-1.09.49-1.09,1.09-1.09,1.09.49,1.09,1.09Z"/>
          <path class="cls-18" d="m139.56,30.82c0,1.13-.91,2.04-2.04,2.04s-2.04-.91-2.04-2.04.91-2.04,2.04-2.04,2.04.91,2.04,2.04Z"/>
          <path class="cls-18" d="m150.36,84.54c0,2.42-1.96,4.38-4.38,4.38s-4.38-1.96-4.38-4.38,1.96-4.38,4.38-4.38,4.38,1.96,4.38,4.38Z"/>
          <circle class="cls-18" cx="11.32" cy="116.87" r="3.14"/>
          <circle class="cls-18" cx="35.88" cy="96.33" r="1.42"/>
          <path class="cls-18" d="m134.32,123.93c0,.97-.79,1.76-1.76,1.76s-1.76-.79-1.76-1.76.79-1.76,1.76-1.76,1.76.79,1.76,1.76Z"/>
          <path class="cls-18" d="m79.44,150.56c0,.89-.72,1.61-1.61,1.61s-1.61-.72-1.61-1.61.72-1.61,1.61-1.61,1.61.72,1.61,1.61Z"/>
        </g>
      </g>
      <text class="cls-19" transform="translate(49.68 120.01)"><tspan class="cls-1" x="0" y="0">Y</tspan><tspan x="10.93" y="0">emek</tspan><tspan class="cls-20" x="-1.92" y="19">T</tspan><tspan x="7.58" y="19">arifleri</tspan></text>
    </g>
  </g>
</svg>